<svg xmlns="http://www.w3.org/2000/svg" xml:space="preserve" viewBox="0 0 24 24"><path fill="#F2F2F2" d="M22 3H2C.897 3 0 3.897 0 5v14c0 1.103.897 2 2 2h20c1.103 0 2-.897 2-2V5c0-1.103-.897-2-2-2z"/><path fill="#F5F5F5" d="M3 21h19c1.103 0 2-.897 2-2V5.125L3 21z"/><linearGradient id="a" x1="7.916" x2="19.18" y1="10.459" y2="15.711" gradientUnits="userSpaceOnUse"><stop offset="0" style="stop-color:#fff;stop-opacity:.2"/><stop offset="1" style="stop-color:#fff;stop-opacity:0"/></linearGradient><path fill="url(#a)" d="M3 21h.33L24 5.375v-.25z"/><path fill="#D32F2F" d="M0 5.118V19c0 1.103.897 2 2 2h1V7.335L0 5.118zM21 7.343V21h1c1.103 0 2-.897 2-2V5.125l-3 2.218z"/><linearGradient id="b" x1="18.89" x2="26.632" y1="9.453" y2="17.195" gradientUnits="userSpaceOnUse"><stop offset="0" style="stop-color:#000;stop-opacity:.1"/><stop offset="1" style="stop-color:#000;stop-opacity:0"/></linearGradient><path fill="url(#b)" d="M21 7.343V21h1c1.103 0 2-.897 2-2V5.125l-3 2.218z"/><path fill="#F5F5F5" d="M21.5 3h-19l9.5 7.313z"/><path fill="#D32F2F" d="M24 5.13V5c0-1.103-.897-2-2-2h-.5L12 10.313 2.5 3H2C.897 3 0 3.897 0 5v.13l12 9.067L24 5.13z"/><linearGradient id="c" x1="1.528" x2="21.461" y1="1.28" y2="10.575" gradientUnits="userSpaceOnUse"><stop offset="0" style="stop-color:#fff;stop-opacity:.1"/><stop offset="1" style="stop-color:#fff;stop-opacity:0"/></linearGradient><path fill="url(#c)" d="M24 5.13V5c0-1.103-.897-2-2-2h-.5L12 10.313 2.5 3H2C.897 3 0 3.897 0 5v.13l12 9.067L24 5.13z"/><path d="M12 13.947.011 4.889C.01 4.926 0 4.962 0 5v.13l12 9.067L24 5.13V5c0-.038-.01-.074-.011-.111L12 13.947zM22 20.75H2c-1.103 0-2-.897-2-2V19c0 1.103.897 2 2 2h20c1.103 0 2-.897 2-2v-.25c0 1.103-.897 2-2 2z" opacity=".1"/><linearGradient id="d" x1="23.715" x2="23.994" y1="4.166" y2="4.445" gradientUnits="userSpaceOnUse"><stop offset="0" style="stop-color:#000;stop-opacity:.1"/><stop offset="1" style="stop-color:#000;stop-opacity:0"/></linearGradient><path fill="url(#d)" d="M23.778 4.103z"/><linearGradient id="e" x1="23.841" x2="24.1" y1="4.64" y2="4.9" gradientUnits="userSpaceOnUse"><stop offset="0" style="stop-color:#000;stop-opacity:.1"/><stop offset="1" style="stop-color:#000;stop-opacity:0"/></linearGradient><path fill="url(#e)" d="M23.941 4.54z"/><linearGradient id="f" x1="6.501" x2="25.381" y1="-.434" y2="18.446" gradientUnits="userSpaceOnUse"><stop offset="0" style="stop-color:#000;stop-opacity:.1"/><stop offset="1" style="stop-color:#000;stop-opacity:0"/></linearGradient><path fill="url(#f)" d="M.534 5.534 16 21h6c1.103 0 2-.897 2-2V5.13l-12 9.067L.534 5.534z"/><path fill="#FFF" d="M22 3H2C.897 3 0 3.897 0 5v.25c0-1.103.897-2 2-2h20c1.103 0 2 .897 2 2V5c0-1.103-.897-2-2-2z" opacity=".2"/><linearGradient id="g" x1="-.708" x2="24.708" y1="6.074" y2="17.926" gradientUnits="userSpaceOnUse"><stop offset="0" style="stop-color:#fff;stop-opacity:.1"/><stop offset="1" style="stop-color:#fff;stop-opacity:0"/></linearGradient><path fill="url(#g)" d="M22 3H2C.897 3 0 3.897 0 5v14c0 1.103.897 2 2 2h20c1.103 0 2-.897 2-2V5c0-1.103-.897-2-2-2z"/></svg>